<svg width="480" height="480" xmlns="http://www.w3.org/2000/svg">

 <g>
  <title>background</title>
  <rect fill="none" id="canvas_background" height="482" width="482" y="-1" x="-1"/>
 </g>
 <g>
  <title>Layer 1</title>
  <g stroke="null" id="svg_3">
   <path transform="rotate(44 293.0822143554686,292.03353881835943) " stroke="null" id="svg_2" d="m126.08222,292.03353l55.66673,-10.08403l222.66605,0c30.74407,0 55.66722,4.51477 55.66722,10.08403c0,5.5692 -24.92315,10.08403 -55.66722,10.08403l-222.66605,0l-55.66673,-10.08403z" stroke-opacity="null" stroke-width="null" fill="#999999"/>
   <path transform="rotate(136 147.1531066894531,147.085205078125) " stroke="null" fill="#999999" id="svg_1" d="m233.40632,210.64222l0,9.778l-172.5064,0l0,-9.778l19.16738,-19.556l0,-58.66801c0,-30.31181 19.45489,-57.00575 47.91845,-65.61039c0,-0.9778 0,-1.85782 0,-2.83562a19.16738,19.556 0 0 1 19.16738,-19.556a19.16738,19.556 0 0 1 19.16738,19.556c0,0.9778 0,1.85782 0,2.83562c28.46356,8.60464 47.91845,35.29859 47.91845,65.61039l0,58.66801l19.16738,19.556m-67.08582,19.556a19.16738,19.556 0 0 1 -19.16738,19.556a19.16738,19.556 0 0 1 -19.16738,-19.556m93.44097,-174.14621l-13.60884,13.88476c16.38811,16.52482 25.58845,39.01423 25.58845,62.48143l19.16738,0c0,-28.64955 -11.11708,-56.22351 -31.14699,-76.36619m-179.69417,76.36619l19.16738,0c0,-23.4672 9.20034,-45.95661 25.58845,-62.48143l-13.60884,-13.88476c-20.02991,20.14268 -31.14699,47.71665 -31.14699,76.36619z"/>
  </g>
 </g>
</svg>